#!OML:ASF F:\VICON\USERDATA\INSTALL\rory3\rory3.ASF
:FULLY-SPECIFIED
:DEGREES
46
root -0.15902309020220878 17.352324094359584 25.901168301219762 3.062570289171835 -3.753148312911715 -6.055708834729801
lfemur -22.361589022845003 8.612221064624718 -8.49944363466667
ltibia 100.0366603631861
lfoot 0.8523488088332198 -8.057542656589352
ltoes -4.954652776531349
rfemur -16.97367435795466 5.351209266825055 35.02590668463967
rtibia 55.247889950301825
rfoot -17.751292581096614 -16.127790663745223
rtoes -11.72434870206272
lowerback 16.97019600566596 0.8071647765054876 4.613273833164155
upperback -0.22386462519802441 2.614123913667242 4.393172279038973
thorax -10.0139349574896 1.1554426693596365 0.6667762892502747
lowerneck -22.328314903992894 -3.861216074994485 -1.4288328604734328
upperneck 12.5294304414643 -5.081969563280343 1.8668555904128799
head 7.51322857204279 -2.3738807003325855 0.14731709341186322
lclavicle -1.7288340370820609e-15 1.7836277319767578e-15
lhumerus -53.43580699054311 -15.218583299444724 101.0525879313879
lradius 100.54172268097035
lwrist 35.15934912954002
lhand -26.20192600027767 2.848190971784931
lfingers 7.12502
lthumb 0.18654752278163755 32.7360433860091
rclavicle -1.7288340368136066e-15 1.783627732172118e-15
rhumerus -47.41110904733729 6.872999121686504 -95.0211391237789
rradius 105.65959205090428
rwrist -8.269558389746186
rhand -16.95477575490952 39.779029314397846
rfingers 7.12502
rthumb 9.02567766399141 9.662213727038301
47
root -0.13642554180532135 17.412521547980912 26.40527795292377 3.2365787509143766 -3.042466302153162 -6.251026911973037
lfemur -26.58696100979356 8.716733518341726 -8.969665615882853
ltibia 99.9843666274397
lfoot -0.47537969937856056 -7.496272446397365
ltoes -5.855801053213144
rfemur -13.751522025285343 4.627747483749355 35.03408303535309
rtibia 53.31735667427151
rfoot -17.325452828267373 -15.416220603408064
rtoes -14.895112540806014
lowerback 16.887635277520257 1.100891147322334 5.091821024235344
upperback -0.33147853908063407 3.095543229407302 4.262835489751768
thorax -10.04522802155133 1.3465227241743718 -0.04090228566573639
lowerneck -22.189720773808016 -4.045614422072996 -1.4021270370848131
upperneck 12.492112514622495 -5.3610608573044045 1.9134074218919863
head 7.506501132436948 -2.4981176549775914 0.14191030518775488
lclavicle -1.7288340370802114e-15 1.7836277319765803e-15
lhumerus -55.53436333224482 -14.820656631155199 101.54005112632699
lradius 101.20409594899166
lwrist 35.50984678351639
lhand -26.13917190621091 3.1021313851961883
lfingers 7.12502
lthumb 0.22315856079995644 32.97804370260467
rclavicle -1.7288340368127347e-15 1.7836277321712428e-15
rhumerus -46.332916230373655 7.791410139038664 -94.74353250500822
rradius 106.90544805275796
rwrist -9.247612872980055
rhand -16.867596172751067 40.097972029722136
rfingers 7.12502
rthumb 9.060628243864608 10.130390218992634
48
root -0.11846467958754732 17.505592660966897 26.531737745511336 3.3542227762698262 -2.311990422991552 -6.357024433910331
lfemur -30.254029386396084 8.153360944525406 -10.026316825368351
ltibia 98.50705125091886
lfoot -1.5629972777429717 -6.6753132904694175
ltoes -7.366417463255514
rfemur -10.702512790643862 3.8123007397760325 34.86125283278824
rtibia 50.69361990410304
rfoot -16.29108732511598 -14.263295991536701
rtoes -17.091670615115582
lowerback 16.692076779182973 1.3827861279598284 5.517113793726858
upperback -0.4564556542066024 3.505657664128768 4.058750322121389
thorax -10.069792605669408 1.5119630667283617 -0.635909066361665
lowerneck -21.904168867780232 -4.190672717035834 -1.4087321949886689
upperneck 12.65504737403288 -5.603500393200869 1.9408457238817847
head 7.519472637326743 -2.621024901011484 0.1350628221993196
lclavicle -1.7288340370764414e-15 1.7836277319777786e-15
lhumerus -57.51995824770449 -14.292074327289939 101.8885565696908
lradius 101.93584283921386
lwrist 35.84008597422403
lhand -25.981968035433905 3.15558812023305
lfingers 7.12502
lthumb 0.365384754440951 33.01326498887589
rclavicle -1.7288340368115238e-15 1.7836277321706527e-15
rhumerus -45.58160836087128 8.60981099730208 -94.39404307828589
rradius 108.2483908451016
rwrist -10.568064744891306
rhand -16.981172242350365 40.30697511076575
rfingers 7.12502
rthumb 8.941833910086944 10.588879301184324
49
root -0.09081525309067304 17.600116212397253 26.783054481008506 3.312211095792673 -1.601010628644214 -6.272571364793718
lfemur -33.07187109604329 7.24598006717249 -11.323292544066183
ltibia 95.78171086786206
lfoot -2.352647757186523 -5.846555638049194
ltoes -10.24836283590271
rfemur -7.8288424080726475 3.0149507528709525 34.466182805988716
rtibia 47.87690824321375
rfoot -14.010736426303763 -12.720004145554991
rtoes -18.6816565439758
lowerback 16.432962139914466 1.6356488872228578 5.840036656181165
upperback -0.6246842761397116 3.8211469222598415 3.778053190537607
thorax -10.045364227388747 1.625716519344459 -1.2366962661139174
lowerneck -21.625931778698288 -4.299228595177214 -1.4105297572891915
upperneck 12.937149227099853 -5.791462373734063 1.9626134495929617
head 7.588067566625803 -2.7047919726206326 0.1259448512220337
lclavicle -1.7288340370757715e-15 1.7836277319767026e-15
lhumerus -59.33817931872546 -13.592950957629148 101.99896614247
lradius 102.60205772431308
lwrist 36.23465660685199
lhand -25.837519406873145 3.2733210137893143
lfingers 7.12502
lthumb 0.4673444443928563 33.06526351316973
rclavicle -1.7288340368010809e-15 1.7836277321767052e-15
rhumerus -45.22311216343886 9.324196736411924 -94.00024818675496
rradius 109.5612449208651
rwrist -11.62339989042823
rhand -17.088047791533707 40.52264241363428
rfingers 7.12502
rthumb 8.700561198327797 10.999388152976218
